<?xml version="1.0" standalone="no"?>
<!DOCTYPE svg PUBLIC "-//W3C//DTD SVG 20010904//EN"
 "http://www.w3.org/TR/2001/REC-SVG-20010904/DTD/svg10.dtd">
<svg version="1.0" xmlns="http://www.w3.org/2000/svg"
 width="300.000000pt" height="170.000000pt" viewBox="0 0 300.000000 170.000000"
 preserveAspectRatio="xMidYMid meet">
<metadata>
Created by potrace 1.10, written by Peter Selinger 2001-2011
</metadata>
<g transform="translate(0.000000,170.000000) scale(0.100000,-0.100000)"
fill="#000000" stroke="none">
<path d="M1600 1513 c0 -10 4 -25 10 -33 8 -12 10 -12 16 3 7 20 -1 47 -16 47
-5 0 -10 -8 -10 -17z"/>
<path d="M1520 1451 c0 -33 19 -71 35 -71 16 0 21 43 9 74 -9 23 -44 20 -44
-3z"/>
<path d="M1920 1462 c-19 -7 -30 -22 -30 -46 0 -18 1 -18 18 -3 20 18 52 23
52 8 0 -5 -13 -23 -30 -39 -29 -29 -44 -92 -19 -76 6 3 9 14 6 24 -3 12 6 26
24 39 48 36 31 111 -21 93z"/>
<path d="M1310 1444 c-30 -7 -56 -12 -58 -12 -2 0 -7 -4 -10 -8 -4 -4 0 -4 8
0 13 7 13 6 0 -6 -8 -7 -16 -20 -18 -28 -1 -8 -7 -25 -13 -36 -8 -16 -8 -28 1
-44 16 -30 -12 -95 -41 -97 -10 -1 -33 -11 -49 -23 -26 -18 -30 -28 -30 -66 0
-33 5 -47 20 -56 12 -8 20 -24 20 -41 l0 -28 -32 24 c-18 14 -60 38 -94 55
-33 17 -83 48 -110 70 -45 35 -52 38 -62 23 -9 -14 -11 -12 -11 11 -1 21 -9
31 -35 43 -46 22 -70 16 -74 -17 -3 -28 27 -58 59 -58 14 0 11 -7 -12 -29 -33
-33 -38 -74 -17 -145 15 -53 25 -66 54 -66 19 0 24 -5 24 -24 0 -13 2 -30 5
-38 3 -8 -10 -21 -37 -33 -32 -15 -42 -25 -41 -40 1 -11 -2 -31 -8 -45 -7 -19
-5 -37 7 -70 9 -25 19 -63 23 -85 5 -31 11 -40 31 -45 19 -5 25 -12 25 -35 0
-16 6 -30 15 -32 13 -4 13 -3 0 6 -13 9 -13 11 2 11 20 0 38 29 38 59 0 12 4
21 10 21 5 0 28 16 49 35 26 24 41 31 44 23 5 -15 -47 -68 -67 -68 -8 0 -17
-13 -20 -30 -19 -95 -20 -87 23 -116 34 -22 41 -33 42 -60 2 -52 3 -57 14 -61
6 -2 20 4 30 12 19 16 19 16 -2 6 -32 -16 -41 -13 -15 5 12 8 22 24 22 34 0
14 9 21 38 25 64 10 139 35 152 50 18 22 39 19 33 -4 -3 -13 3 -25 20 -36 23
-15 24 -19 14 -56 -11 -45 -4 -57 33 -61 23 -3 24 0 21 44 -2 38 1 48 13 48 9
0 21 11 26 25 9 25 11 25 39 10 17 -8 42 -15 56 -15 l27 0 -7 -60 c-6 -48 -4
-66 9 -85 32 -48 97 -15 95 48 l-2 32 -4 -30 c-3 -16 -12 -38 -20 -47 -17 -19
-48 -24 -57 -9 -3 4 5 6 17 4 46 -9 54 25 33 127 -4 19 0 29 16 39 16 10 23
10 26 2 5 -16 27 -14 42 4 12 14 15 14 30 0 9 -8 22 -15 28 -15 7 0 12 -13 12
-28 0 -38 8 -44 35 -26 29 19 39 43 24 60 -9 11 -7 14 13 14 14 0 46 3 72 6
44 6 46 6 46 -18 0 -13 -5 -29 -12 -36 -16 -16 17 -52 48 -52 24 0 54 34 54
60 -1 8 -7 0 -15 -18 -8 -17 -19 -32 -25 -32 -6 0 -4 7 5 16 9 9 15 28 13 42
-2 17 5 34 20 49 12 12 22 31 22 41 0 11 7 23 16 26 22 9 24 8 24 -10 0 -9 7
-31 16 -50 12 -26 14 -43 6 -77 -9 -45 -4 -67 24 -94 16 -16 38 -17 28 -1 -5
7 -2 9 8 5 16 -6 38 10 38 27 0 5 -7 1 -15 -10 -13 -17 -13 -14 0 24 8 24 10
40 5 37 -5 -3 -10 5 -12 17 -3 16 8 33 35 58 l38 35 -15 65 c-21 86 -20 129 3
188 15 37 17 52 8 67 -19 35 -51 55 -79 52 -26 -3 -28 -1 -28 30 0 26 4 33 19
33 11 0 22 -4 26 -10 8 -13 108 -2 117 13 16 24 8 79 -14 106 -21 23 -29 26
-80 23 l-58 -3 6 30 c14 69 -53 105 -110 60 -21 -16 -25 -26 -20 -47 6 -24 3
-22 -20 12 -24 35 -25 39 -10 50 9 7 18 32 21 59 5 43 4 47 -20 56 -14 5 -28
14 -31 19 -3 5 -17 7 -31 4 -24 -4 -25 -3 -23 45 2 40 -4 58 -27 96 -29 45
-45 58 -45 36 0 -5 -4 -7 -10 -4 -5 3 -10 1 -10 -5 0 -7 -7 -10 -15 -6 -8 3
-15 1 -15 -5 0 -6 -6 -9 -14 -6 -8 3 -16 3 -18 -1 -2 -4 -37 -18 -78 -30 -71
-22 -77 -23 -118 -8 -33 12 -48 13 -65 4 -64 -33 -58 -35 -72 26 -13 58 -23
64 -85 50z m49 -27 c6 -8 15 -47 21 -88 12 -86 28 -139 41 -139 10 0 27 -39
35 -80 5 -21 0 -27 -26 -37 -33 -13 -39 -7 -56 62 -3 14 -10 25 -14 25 -5 0
-15 3 -24 6 -23 9 -20 -13 8 -66 34 -66 22 -81 -25 -29 -22 24 -39 47 -39 52
0 4 -4 7 -10 7 -5 0 -14 -18 -20 -40 -9 -34 -14 -39 -28 -31 -10 6 -23 6 -34
0 -22 -12 -23 5 -3 41 19 32 19 51 0 26 -13 -18 -16 -18 -39 -2 -14 9 -23 22
-20 30 6 15 46 36 72 37 11 0 27 22 45 59 16 33 35 67 43 75 14 13 14 15 0 15
-8 0 -18 -5 -22 -11 -4 -8 -9 -7 -14 2 -14 22 21 79 54 88 43 13 42 13 55 -2z
m471 -32 c7 -9 13 -31 14 -51 1 -35 0 -36 -42 -39 -24 -2 -47 -6 -50 -10 -3
-3 -8 -49 -10 -101 -4 -86 -7 -96 -26 -104 -11 -4 -24 -6 -27 -4 -16 9 -18 76
-6 141 l13 71 -28 -9 c-23 -6 -30 -4 -40 14 -6 12 -16 25 -22 30 -7 4 -4 9 9
13 11 3 58 18 105 34 104 34 95 33 110 15z m-254 -61 c55 -26 58 -85 6 -109
-12 -5 -22 -13 -22 -16 0 -3 25 -23 55 -43 58 -38 66 -57 38 -88 -16 -18 -19
-16 -85 49 l-68 67 0 -52 c0 -76 -22 -67 -44 18 -10 41 -15 82 -11 100 7 33 4
35 -26 20 -24 -13 -24 -3 1 38 18 29 24 32 71 32 28 0 66 -7 85 -16z m363
-108 c16 -19 4 -25 -56 -32 -26 -3 -60 -7 -75 -9 -24 -4 -28 -1 -28 20 0 27
14 31 96 34 34 1 56 -4 63 -13z m-1137 -15 c33 -32 17 -42 -32 -20 -35 16 -41
22 -30 29 23 14 39 12 62 -9z m96 -80 c20 -16 73 -48 117 -71 91 -47 155 -107
155 -144 0 -33 -67 -105 -194 -206 l-106 -84 0 -48 c0 -29 -5 -48 -11 -48 -8
0 -9 15 -5 45 6 38 5 45 -9 45 -20 0 -50 68 -59 131 -7 46 -6 47 26 58 22 8
34 8 36 1 2 -5 8 -10 14 -10 8 0 9 28 4 88 -4 48 -8 93 -8 100 -1 7 -15 12
-35 12 -26 0 -33 4 -33 20 0 10 -5 30 -11 44 -10 20 -9 29 2 42 12 15 68 54
77 54 2 0 20 -13 40 -29z m1028 16 c3 -3 -14 -12 -36 -21 -39 -15 -44 -15 -78
1 l-37 18 30 6 c30 7 113 4 121 -4z m57 -124 l47 -88 0 82 c0 80 1 83 26 89
42 11 49 -6 36 -85 -7 -38 -12 -90 -12 -114 0 -24 -7 -52 -15 -63 -8 -10 -15
-31 -15 -46 0 -19 -5 -28 -16 -28 -12 0 -14 7 -9 29 6 29 -16 84 -66 164 l-20
32 7 -78 c6 -73 5 -80 -16 -99 -18 -17 -24 -18 -31 -7 -6 8 -7 30 -4 49 8 56
13 96 8 79 -2 -10 -19 -20 -39 -23 -33 -7 -34 -8 -19 -29 22 -31 19 -74 -6
-87 -24 -13 -50 -6 -47 12 2 9 -9 12 -40 10 -111 -7 -164 94 -102 195 49 81
229 100 193 21 -8 -19 -17 -22 -50 -20 -76 6 -131 -71 -86 -120 20 -22 66 -24
83 -3 11 13 8 15 -20 15 -29 0 -32 3 -26 23 3 12 6 25 6 30 0 4 34 7 75 7 84
0 89 6 61 75 -15 34 -14 35 12 50 15 8 30 14 33 15 3 0 26 -39 52 -87z m-472
27 l30 -30 -21 -30 c-26 -37 -50 -39 -50 -5 0 29 -28 45 -41 24 -17 -27 -9
-40 36 -60 59 -26 75 -44 75 -83 0 -40 -21 -60 -79 -76 -35 -9 -45 -9 -52 2
-7 10 -9 10 -9 1 0 -7 -5 -13 -11 -13 -6 0 -8 7 -5 16 5 12 2 15 -11 9 -10 -3
-51 -13 -92 -22 -60 -12 -78 -13 -97 -2 -27 14 -33 60 -11 80 7 7 11 29 8 55
-3 44 -3 44 29 44 26 0 31 -3 26 -16 -5 -14 1 -16 54 -12 61 4 65 2 54 -26 -5
-12 -20 -16 -60 -16 -52 0 -54 -1 -54 -26 0 -23 3 -25 28 -20 89 22 105 29
109 47 5 17 8 16 33 -11 32 -34 42 -37 61 -14 11 14 10 19 -11 35 -77 57 -77
57 -76 96 2 31 8 42 35 60 45 30 67 29 102 -7z m103 14 c20 -19 5 -54 -24 -54
-27 0 -37 40 -14 57 22 16 19 16 38 -3z m-394 -16 c0 -9 16 -12 58 -10 48 3
61 0 76 -17 17 -19 14 -47 -5 -36 -5 3 -6 -1 -3 -10 6 -13 2 -15 -22 -8 -16 4
-57 8 -91 8 -35 0 -63 4 -63 10 0 6 -3 20 -6 33 -5 19 -2 22 20 22 16 0 25 4
21 10 -3 6 -1 10 4 10 6 0 11 -6 11 -12z m388 -60 c6 -7 8 -25 5 -40 -4 -20
-11 -28 -27 -28 -42 0 -59 36 -30 64 19 19 38 20 52 4z m624 -13 c-2 -11 -5
-20 -5 -21 -1 -1 -30 1 -64 4 -54 4 -63 7 -63 24 0 17 7 19 68 16 61 -3 67 -5
64 -23z m-622 -111 c0 -12 -7 -27 -15 -34 -8 -7 -15 -19 -15 -27 0 -8 -5 -13
-12 -11 -6 2 -13 25 -15 51 -4 42 -2 48 19 56 26 10 38 -1 38 -35z m405 -152
c3 -18 10 -32 13 -32 4 0 23 27 42 60 40 69 70 84 101 53 19 -19 19 -20 -2
-68 -21 -47 -22 -99 -2 -196 4 -20 -1 -27 -22 -37 -27 -12 -27 -13 -24 -100 3
-72 1 -87 -11 -87 -12 0 -14 14 -11 79 2 48 -1 86 -9 101 -9 16 -9 43 -2 106
6 46 9 85 7 87 -2 2 -19 -27 -38 -64 -22 -44 -37 -63 -41 -54 -3 8 -13 40 -23
70 l-18 55 -5 -82 c-3 -46 -11 -88 -18 -95 -7 -7 -12 -40 -12 -80 0 -39 -4
-68 -10 -68 -6 0 -10 30 -10 71 l0 71 -52 -6 c-29 -4 -70 -9 -90 -12 l-37 -6
6 -47 c3 -31 1 -51 -6 -55 -8 -5 -11 9 -11 44 0 42 -3 51 -15 47 -18 -7 -31
11 -26 38 2 11 8 58 15 105 9 70 14 85 30 88 14 3 17 0 13 -12 -5 -13 -2 -15
17 -10 13 3 27 1 30 -5 4 -6 27 -11 52 -11 45 0 53 -10 35 -39 -7 -10 -21 -12
-55 -8 l-46 7 0 -31 c0 -30 1 -31 33 -25 17 4 46 10 64 13 28 5 32 10 38 47 4
22 11 55 17 72 9 24 8 38 -4 61 -15 30 -15 31 16 46 l31 15 16 -37 c9 -21 20
-52 24 -69z m-219 47 c9 -34 12 -38 13 -17 1 24 6 27 47 34 49 7 58 2 67 -36
9 -39 -23 -49 -98 -31 -38 9 -78 11 -107 7 l-45 -7 -12 -56 c-6 -31 -11 -78
-11 -103 0 -30 -6 -52 -15 -60 -8 -7 -15 -23 -15 -36 0 -14 -6 -24 -14 -24
-26 0 -33 194 -9 256 3 8 -1 14 -9 14 -11 0 -43 59 -35 66 5 4 213 42 222 40
5 -1 15 -22 21 -47z m-616 -4 c34 -17 37 -33 15 -75 -17 -33 -42 -31 -47 3 -4
26 -39 35 -57 14 -19 -24 -3 -43 55 -61 93 -29 116 -69 70 -123 -30 -35 -83
-53 -160 -53 l-58 0 4 -47 c2 -32 -1 -47 -10 -51 -11 -3 -13 8 -10 52 2 38 -1
56 -9 56 -12 0 -53 47 -53 61 0 5 6 9 13 9 7 0 29 11 49 25 l37 25 30 -30 c34
-35 59 -38 92 -11 l23 19 -64 29 c-36 17 -74 40 -85 52 -18 20 -18 25 -5 49
16 28 91 72 123 72 10 0 31 -7 47 -15z m245 -15 c16 -17 14 -22 -21 -82 -31
-51 -38 -74 -40 -121 -1 -35 -8 -64 -17 -75 -8 -9 -17 -27 -19 -40 -4 -32 -22
-28 -26 5 -2 15 -10 36 -19 45 -12 14 -13 25 -4 68 10 46 9 55 -11 93 -13 23
-29 46 -36 50 -9 6 -9 13 -2 28 8 14 7 19 -2 20 -7 0 -2 5 11 10 30 12 37 5
59 -54 l18 -46 28 63 c29 68 45 75 81 36z m103 14 c24 -16 28 -44 12 -75 -14
-25 -37 -24 -45 1 -9 27 -45 27 -45 0 0 -15 13 -26 48 -41 26 -11 53 -27 60
-36 18 -24 15 -77 -6 -104 -16 -20 -18 -39 -16 -126 3 -89 2 -103 -12 -103
-14 0 -16 12 -10 100 l6 99 -50 -6 c-69 -8 -90 11 -90 80 l0 51 28 -27 c32
-31 54 -34 73 -11 12 14 10 19 -9 33 -13 9 -32 23 -44 32 l-20 15 22 44 c17
34 20 48 12 61 -9 14 -8 19 6 22 34 9 58 7 80 -9z"/>
<path d="M1311 1255 c-6 -16 -13 -35 -16 -41 -2 -7 9 -14 26 -16 16 -3 29 -4
29 -4 0 1 -7 21 -14 46 l-14 45 -11 -30z"/>
<path d="M1496 1268 c-13 -50 1 -63 35 -32 14 13 16 21 8 35 -13 26 -35 24
-43 -3z"/>
<path d="M996 1032 c6 -4 14 -16 18 -27 3 -11 16 -26 28 -34 23 -14 23 -14 -1
12 -12 14 -20 30 -17 35 3 6 -1 13 -10 16 -21 8 -31 7 -18 -2z"/>
<path d="M960 883 l0 -96 23 19 c62 52 77 70 77 91 0 14 4 22 9 19 5 -4 7 3 4
14 -3 11 -9 20 -14 20 -5 0 -6 -7 -2 -16 4 -11 -9 -5 -37 15 -24 17 -47 31
-52 31 -4 0 -8 -43 -8 -97z"/>
<path d="M1594 1436 c-3 -15 0 -33 9 -46 l15 -22 7 21 c3 12 10 19 15 16 4 -3
13 2 19 9 13 15 -1 32 -18 22 -5 -3 -11 1 -15 9 -8 23 -25 18 -32 -9z"/>
<path d="M1444 1437 c-9 -23 -4 -27 40 -33 39 -5 48 9 16 26 -15 8 -20 8 -20
-2 0 -6 -6 -3 -14 8 -14 18 -15 18 -22 1z"/>
<path d="M1137 1373 c-10 -9 -9 -43 1 -43 4 0 9 -10 9 -22 1 -13 10 -29 20
-36 16 -11 18 -10 21 7 2 12 -4 31 -12 43 -9 12 -16 30 -16 40 0 18 -11 24
-23 11z"/>
<path d="M1078 1299 c-22 -13 -23 -36 -2 -79 14 -28 18 -30 26 -16 5 10 7 24
4 32 -3 9 1 14 14 14 29 0 33 17 8 39 -25 24 -27 24 -50 10z"/>
<path d="M1951 1287 c-9 -12 -7 -16 10 -20 26 -7 51 2 46 17 -5 17 -42 19 -56
3z"/>
<path d="M2014 1234 c3 -9 6 -21 6 -27 0 -6 7 -4 16 5 18 18 11 38 -13 38 -10
0 -13 -6 -9 -16z"/>
<path d="M925 1219 c-9 -13 21 -46 57 -65 25 -13 28 -13 28 1 0 34 -30 75 -55
75 -13 0 -27 -5 -30 -11z"/>
<path d="M2075 1212 c-5 -4 -20 -22 -33 -39 -27 -39 -11 -44 22 -8 24 26 50
32 61 15 3 -5 -7 -16 -22 -24 -26 -14 -26 -15 -6 -16 30 0 55 37 42 62 -10 18
-45 24 -64 10z"/>
<path d="M1024 1188 c-4 -6 -2 -14 4 -16 7 -2 12 -12 12 -22 0 -10 5 -22 11
-25 6 -4 8 -13 5 -21 -3 -8 -3 -14 0 -14 10 0 21 46 13 60 -4 8 -10 23 -13 33
-6 20 -22 22 -32 5z"/>
<path d="M2167 1164 c-14 -15 -6 -34 14 -34 14 0 19 5 17 17 -3 18 -20 27 -31
17z"/>
<path d="M2146 1113 c-3 -3 1 -12 9 -20 14 -14 35 -10 35 6 0 10 -37 21 -44
14z"/>
<path d="M676 884 c-20 -20 -20 -27 2 -46 30 -27 57 -30 82 -10 19 16 21 22
11 40 -6 12 -16 22 -21 22 -14 0 -12 -24 2 -38 9 -9 5 -12 -19 -12 -17 0 -36
6 -42 14 -10 12 -7 15 16 18 28 3 28 3 6 16 -18 10 -24 9 -37 -4z"/>
<path d="M2240 801 c0 -5 11 -12 25 -15 15 -4 23 -11 19 -17 -3 -6 -15 -8 -26
-6 -12 4 -18 1 -15 -6 2 -7 14 -12 28 -12 27 0 38 28 19 50 -14 16 -50 20 -50
6z"/>
</g>
</svg>
